# xmcd
# 
# Track frame offsets:
#     150
#     20545
#     40532
#     63452
#     82127
#     106525
#     125542
#     148517
#     166467
#     183725
# 
# Disc length: 2782
# 
# Revision: 7
# Processed by: cddbd v1.5.2PL0 Copyright (c) Steve Scherf et al.
# Submitted via: fre:ac v1.0.17
# 
DISCID=830adc0a
DTITLE=John Mayer - Heavier Things
DYEAR=2003
DGENRE=Blues
TTITLE0=Clarity
TTITLE1=Bigger Than My Body
TTITLE2=Something's Missing
TTITLE3=New Deep
TTITLE4=Come Back To Bed
TTITLE5=Home Life
TTITLE6=Split Screen Sadness
TTITLE7=Daughters
TTITLE8=Only Heart
TTITLE9=Wheel
EXTD=YEAR: 2003
EXTT0=
EXTT1=
EXTT2=
EXTT3=
EXTT4=
EXTT5=
EXTT6=
EXTT7=
EXTT8=
EXTT9=
PLAYORDER=
